<?xml version="1.0" encoding="UTF-8" standalone="no"?>
<!DOCTYPE svg PUBLIC "-//W3C//DTD SVG 1.1//EN" "http://www.w3.org/Graphics/SVG/1.1/DTD/svg11.dtd">
<svg width="100%" height="100%" viewBox="0 0 16 16" version="1.1" xmlns="http://www.w3.org/2000/svg" xmlns:xlink="http://www.w3.org/1999/xlink" xml:space="preserve" xmlns:serif="http://www.serif.com/" style="fill-rule:evenodd;clip-rule:evenodd;stroke-miterlimit:10;">
    <g transform="matrix(0.0168955,0,0,0.0168955,0,0)">
        <path d="M835.5,473.6C835.5,273.8 673.3,111.6 473.5,111.6C273.7,111.6 111.5,273.8 111.5,473.6C111.5,673.4 273.7,835.6 473.5,835.6C673.3,835.6 835.5,673.4 835.5,473.6" style="fill:rgb(0,0,128);fill-rule:nonzero;"/>
        <path d="M729.5,323.6C729.5,265.1 682,217.6 623.5,217.6C565,217.6 517.5,265.1 517.5,323.6C517.5,382.1 565,429.6 623.5,429.6C682,429.6 729.5,382.1 729.5,323.6" style="fill:white;fill-rule:nonzero;"/>
        <path d="M941.5,111.5C941.5,53 894,5.5 835.5,5.5C777,5.5 729.5,53 729.5,111.5C729.5,170 777,217.5 835.5,217.5C894,217.5 941.5,170.1 941.5,111.5" style="fill:rgb(0,0,128);fill-rule:nonzero;"/>
        <g transform="matrix(2.14525,0,0,2.14525,-173.508,-675.818)">
            <path d="M258.1,627.8L375.4,627.8L375.4,654.5L227.8,654.5L227.8,417L258.1,417L258.1,627.8Z" style="fill:white;fill-rule:nonzero;"/>
        </g>
        <path d="M890.6,261C924.1,326.8 941.6,399.6 941.6,473.5C941.6,731.9 731.9,941.6 473.5,941.6C215.1,941.6 5.4,731.9 5.4,473.5C5.4,215.1 215.1,5.4 473.5,5.4C556.6,5.4 638.1,27.5 709.7,69.3" style="fill:none;fill-rule:nonzero;stroke:rgb(128,128,128);stroke-width:10.86px;stroke-dasharray:40.85,40.85;"/>
    </g>
</svg>
